<svg width="512" height="512" viewBox="0 0 512 512" fill="none" xmlns="http://www.w3.org/2000/svg">
  <rect width="512" height="512" rx="112" fill="#0F5132"/>
  <circle cx="356" cy="156" r="64" fill="#E11D48"/>
  <path d="M128 164C128 142 146 124 168 124H244C268 124 288 144 288 168V388C288 372 275 360 259 360H168C146 360 128 342 128 320V164Z" fill="#F8FAFC"/>
  <path d="M288 168C288 144 308 124 332 124H344C333 137 326 153 326 170C326 209 357 240 396 240C407 240 417 238 426 234V320C426 342 408 360 386 360H317C301 360 288 372 288 388V168Z" fill="#D1FAE5"/>
  <path d="M165 188H247M165 232H247M165 276H228M326 276H388M326 320H388" stroke="#0F5132" stroke-width="18" stroke-linecap="round"/>
</svg>
